<svg width="24" height="24" viewBox="0 0 24 24" fill="none" xmlns="http://www.w3.org/2000/svg">
<g opacity="0.5">
<path d="M11.9999 4.62158C9.55796 4.62277 7.1665 5.31669 5.10323 6.62274C3.03996 7.9288 1.38954 9.7934 0.343657 12C1.38858 14.2073 3.03878 16.0725 5.10226 17.3787C7.16575 18.6849 9.55771 19.3784 11.9999 19.3784C14.442 19.3784 16.834 18.6849 18.8974 17.3787C20.9609 16.0725 22.6111 14.2073 23.6561 12C22.6102 9.7934 20.9598 7.9288 18.8965 6.62274C16.8332 5.31669 14.4418 4.62277 11.9999 4.62158ZM11.9999 17.3783C10.1029 17.3702 8.24047 16.8704 6.59428 15.9278C4.94809 14.9852 3.5744 13.6319 2.60726 12C3.56823 10.3626 4.94056 9.00484 6.58813 8.06141C8.23571 7.11799 10.1013 6.62167 11.9999 6.62167C13.8984 6.62167 15.764 7.11799 17.4116 8.06141C19.0592 9.00484 20.4315 10.3626 21.3924 12C20.4253 13.6319 19.0516 14.9852 17.4054 15.9278C15.7592 16.8704 13.8968 17.3702 11.9999 17.3783ZM11.9999 8.33578C11.2751 8.33578 10.5667 8.55068 9.96414 8.95331C9.36157 9.35594 8.89191 9.92821 8.61458 10.5978C8.33725 11.2673 8.26468 12.004 8.40607 12.7148C8.54745 13.4256 8.89643 14.0785 9.40888 14.591C9.92133 15.1034 10.5742 15.4524 11.285 15.5938C11.9958 15.7352 12.7325 15.6626 13.4021 15.3853C14.0716 15.1079 14.6439 14.6383 15.0465 14.0357C15.4491 13.4331 15.6641 12.7247 15.6641 12C15.6641 11.0282 15.278 10.0962 14.5908 9.409C13.9037 8.72183 12.9717 8.33578 11.9999 8.33578ZM11.9999 13.6642C11.6707 13.6642 11.3489 13.5666 11.0753 13.3837C10.8016 13.2008 10.5883 12.9409 10.4623 12.6368C10.3364 12.3328 10.3034 11.9981 10.3676 11.6753C10.4318 11.3525 10.5903 11.056 10.8231 10.8232C11.0558 10.5905 11.3524 10.432 11.6752 10.3678C11.998 10.3035 12.3326 10.3365 12.6367 10.4625C12.9408 10.5884 13.2007 10.8017 13.3836 11.0754C13.5664 11.3491 13.6641 11.6708 13.6641 12C13.6635 12.4412 13.4881 12.8642 13.1761 13.1762C12.8641 13.4882 12.4411 13.6637 11.9999 13.6642Z" fill="black"/>
<path d="M1.7189 0.304688L23.3551 21.9409L21.9409 23.3551L0.304688 1.7189L1.7189 0.304688Z" fill="black"/>
</g>
</svg>
