<svg width="71" height="13" viewBox="0 0 71 13" fill="none" xmlns="http://www.w3.org/2000/svg">
<path d="M5.73438 12.1875C4.17708 12.1875 2.9401 11.6641 2.02344 10.6172C1.11198 9.5651 0.65625 8.14583 0.65625 6.35938C0.65625 4.58854 1.11719 3.17708 2.03906 2.125C2.96094 1.06771 4.19271 0.539062 5.73438 0.539062C6.96354 0.539062 8.00521 0.882812 8.85938 1.57031C9.71875 2.2526 10.237 3.15625 10.4141 4.28125H8.99219C8.8099 3.54167 8.42188 2.95052 7.82812 2.50781C7.23438 2.0599 6.53646 1.83594 5.73438 1.83594C4.63542 1.83594 3.75521 2.2474 3.09375 3.07031C2.43229 3.89323 2.10156 4.98958 2.10156 6.35938C2.10156 7.74479 2.42969 8.84635 3.08594 9.66406C3.74219 10.4818 4.6276 10.8906 5.74219 10.8906C6.57031 10.8906 7.26823 10.7005 7.83594 10.3203C8.40365 9.9401 8.78906 9.40625 8.99219 8.71875H10.4141C10.1536 9.83333 9.61979 10.6901 8.8125 11.2891C8.00521 11.888 6.97917 12.1875 5.73438 12.1875ZM11.9375 12V0.726562H13.2969V12H11.9375ZM18.5 12.1406C17.3646 12.1406 16.4531 11.763 15.7656 11.0078C15.0781 10.2474 14.7344 9.22396 14.7344 7.9375C14.7344 6.65104 15.0781 5.63021 15.7656 4.875C16.4531 4.11458 17.3646 3.73438 18.5 3.73438C19.6302 3.73438 20.5391 4.11458 21.2266 4.875C21.9141 5.63021 22.2578 6.65104 22.2578 7.9375C22.2578 9.21875 21.9141 10.2396 21.2266 11C20.5391 11.7604 19.6302 12.1406 18.5 12.1406ZM16.7578 10.1484C17.1901 10.6797 17.7708 10.9453 18.5 10.9453C19.2292 10.9453 19.8073 10.6823 20.2344 10.1562C20.6615 9.625 20.875 8.88542 20.875 7.9375C20.875 6.98958 20.6615 6.2526 20.2344 5.72656C19.8073 5.19531 19.2292 4.92969 18.5 4.92969C17.7708 4.92969 17.1901 5.19531 16.7578 5.72656C16.3307 6.25781 16.1172 6.99479 16.1172 7.9375C16.1172 8.88021 16.3307 9.61719 16.7578 10.1484ZM30.3047 3.875V12H29.0156V10.6797H28.9844C28.4792 11.6536 27.6198 12.1406 26.4062 12.1406C25.526 12.1406 24.8359 11.875 24.3359 11.3438C23.8411 10.8073 23.5938 10.0755 23.5938 9.14844V3.875H24.9531V8.90625C24.9531 10.2604 25.5781 10.9375 26.8281 10.9375C27.4844 10.9375 28 10.7318 28.375 10.3203C28.7552 9.90365 28.9453 9.34635 28.9453 8.64844V3.875H30.3047ZM35.1484 12.1406C34.1068 12.1406 33.2656 11.7578 32.625 10.9922C31.9896 10.2266 31.6719 9.20833 31.6719 7.9375C31.6719 6.67188 31.9896 5.65625 32.625 4.89062C33.2604 4.11979 34.0911 3.73438 35.1172 3.73438C35.6901 3.73438 36.2031 3.86458 36.6562 4.125C37.1094 4.38542 37.4583 4.74219 37.7031 5.19531H37.7344V0.726562H39.0938V12H37.7969V10.625H37.7734C37.5078 11.099 37.1484 11.4714 36.6953 11.7422C36.2422 12.0078 35.7266 12.1406 35.1484 12.1406ZM35.4062 4.92969C34.6875 4.92969 34.1172 5.20312 33.6953 5.75C33.2734 6.29167 33.0625 7.02083 33.0625 7.9375C33.0625 8.85938 33.2734 9.59115 33.6953 10.1328C34.1172 10.6745 34.6875 10.9453 35.4062 10.9453C36.1094 10.9453 36.6745 10.6719 37.1016 10.125C37.5286 9.57292 37.7422 8.84375 37.7422 7.9375C37.7422 7.03125 37.526 6.30469 37.0938 5.75781C36.6667 5.20573 36.1042 4.92969 35.4062 4.92969ZM45.3984 12H43.9922V1.99219H40.4375V0.726562H48.9531V1.99219H45.3984V12ZM50.7969 10.9844C51.4375 10.9844 51.974 10.7865 52.4062 10.3906C52.8438 9.98958 53.0625 9.4974 53.0625 8.91406V8.25L50.8906 8.38281C50.3438 8.41927 49.9193 8.55208 49.6172 8.78125C49.3203 9.01042 49.1719 9.31771 49.1719 9.70312C49.1719 10.0885 49.3203 10.3984 49.6172 10.6328C49.9141 10.8672 50.3073 10.9844 50.7969 10.9844ZM50.4922 12.1406C49.6849 12.1406 49.0312 11.9167 48.5312 11.4688C48.0365 11.0208 47.7891 10.4323 47.7891 9.70312C47.7891 9.00521 48.0443 8.44792 48.5547 8.03125C49.0703 7.61458 49.7969 7.38021 50.7344 7.32812L53.0625 7.19531V6.51562C53.0625 6.02083 52.9062 5.63281 52.5938 5.35156C52.2812 5.07031 51.8438 4.92969 51.2812 4.92969C50.7656 4.92969 50.3464 5.04427 50.0234 5.27344C49.7005 5.4974 49.4948 5.8125 49.4062 6.21875H48.0938C48.1406 5.49479 48.4531 4.90104 49.0312 4.4375C49.6146 3.96875 50.375 3.73438 51.3125 3.73438C52.2656 3.73438 53.0208 3.97396 53.5781 4.45312C54.1406 4.93229 54.4219 5.57552 54.4219 6.38281V12H53.1328V10.6016H53.1016C52.8568 11.0651 52.4974 11.4375 52.0234 11.7188C51.5495 12 51.0391 12.1406 50.4922 12.1406ZM56.0078 6.11719C56.0078 5.41927 56.2891 4.84896 56.8516 4.40625C57.4193 3.95833 58.1484 3.73438 59.0391 3.73438C59.8776 3.73438 60.5755 3.95833 61.1328 4.40625C61.6901 4.85417 61.9844 5.42188 62.0156 6.10938H60.7188C60.6719 5.71354 60.4948 5.40365 60.1875 5.17969C59.8854 4.95573 59.487 4.84375 58.9922 4.84375C58.4974 4.84375 58.099 4.95573 57.7969 5.17969C57.4948 5.39844 57.3438 5.6875 57.3438 6.04688C57.3438 6.59896 57.7943 6.98958 58.6953 7.21875L59.9531 7.52344C60.7708 7.73177 61.3464 8.0026 61.6797 8.33594C62.0182 8.66406 62.1875 9.1276 62.1875 9.72656C62.1875 10.4349 61.8854 11.0156 61.2812 11.4688C60.6771 11.9167 59.901 12.1406 58.9531 12.1406C58.0677 12.1406 57.3359 11.9219 56.7578 11.4844C56.1849 11.0417 55.862 10.4583 55.7891 9.73438H57.1484C57.2995 10.599 57.9297 11.0312 59.0391 11.0312C59.5859 11.0312 60.0182 10.9245 60.3359 10.7109C60.6589 10.4922 60.8203 10.1979 60.8203 9.82812C60.8203 9.53646 60.724 9.30469 60.5312 9.13281C60.3438 8.96094 60.0234 8.8151 59.5703 8.69531L58.1406 8.32812C56.7188 7.96354 56.0078 7.22656 56.0078 6.11719ZM65.0312 7.48438L68.625 3.875H70.2734L66.75 7.38281L70.3828 12H68.8047L65.7891 8.21875L65.0312 8.9375V12H63.6719V0.726562H65.0312V7.48438Z" fill="white"/>
</svg>
