<svg width="48" height="48" viewBox="0 0 48 48" fill="none" xmlns="http://www.w3.org/2000/svg">
<circle cx="24" cy="24" r="24" fill="white"/>
<path d="M23.9999 21.8334C24.8569 21.8334 25.6948 21.5792 26.4074 21.1031C27.12 20.6269 27.6755 19.9501 28.0034 19.1583C28.3314 18.3665 28.4172 17.4952 28.2499 16.6546C28.0828 15.8141 27.67 15.0419 27.064 14.4359C26.458 13.8299 25.6859 13.4172 24.8454 13.25C24.0047 13.0828 23.1335 13.1686 22.3417 13.4965C21.5498 13.8245 20.873 14.3799 20.3969 15.0926C19.9207 15.8052 19.6666 16.643 19.6666 17.5C19.6679 18.6489 20.1248 19.7504 20.9372 20.5627C21.7496 21.3751 22.851 21.8321 23.9999 21.8334ZM23.9999 15.3334C24.4285 15.3334 24.8473 15.4604 25.2036 15.6985C25.5599 15.9366 25.8377 16.275 26.0017 16.6709C26.1656 17.0668 26.2085 17.5024 26.125 17.9227C26.0414 18.343 25.835 18.7291 25.532 19.0321C25.229 19.3351 24.8429 19.5415 24.4226 19.6251C24.0023 19.7087 23.5667 19.6658 23.1707 19.5018C22.7749 19.3378 22.4365 19.0601 22.1984 18.7038C21.9603 18.3474 21.8333 17.9285 21.8333 17.5C21.8339 16.9256 22.0624 16.3749 22.4686 15.9687C22.8748 15.5625 23.4255 15.334 23.9999 15.3334ZM32.3492 27.4711C30.1332 25.2599 27.1304 24.018 23.9999 24.018C20.8694 24.018 17.8667 25.2599 15.6507 27.4711L15.3333 27.7885V33.75H32.6666V27.7885L32.3492 27.4711ZM30.4999 31.5834H17.4999V28.6998C19.2779 27.0816 21.5957 26.1847 23.9999 26.1847C26.4042 26.1847 28.722 27.0816 30.4999 28.6998V31.5834Z" fill="#AFAFAF"/>
</svg>
